<mxfile host="app.diagrams.net" modified="2024-06-09T06:26:51.277Z" agent="Mozilla/5.0 (Windows NT 10.0; Win64; x64) AppleWebKit/537.36 (KHTML, like Gecko) Chrome/125.0.0.0 Safari/537.36" version="24.3.0" etag="3kL7o4U9KluHgAMzI9yw" type="github">
  <diagram name="第 1 页" id="oBKPnkbW5JwkRmJNySTK">
    <mxGraphModel>
      <root>
        <mxCell id="0" />
        <mxCell id="1" parent="0" />
      </root>
    </mxGraphModel>
  </diagram>
</mxfile>
